<!--?xml version="1.0" standalone="no"?-->
              <svg id="sw-js-blob-svg" viewBox="-44 -36 82 71.3" xmlns="http://www.w3.org/2000/svg" version="1.1">
                    <defs> 
                        <linearGradient id="sw-gradient" x1="0" x2="1" y1="1" y2="0">
                            <stop id="stop1" stop-color="rgba(159,61,240, 1)" offset="0%"></stop>
                            <stop id="stop2" stop-color="rgba(102,153,253, 1)" offset="100%"></stop>
                        </linearGradient>
                    </defs>
                <path fill="url(#sw-gradient)" d="M20.7,-33.3C24.8,-29.6,24.6,-20.4,26.8,-13C28.9,-5.6,33.4,-0.1,35.6,7.2C37.8,14.5,37.7,23.6,33.2,28.7C28.7,33.9,19.7,35.3,12.2,34C4.7,32.7,-1.3,28.8,-8.8,27.6C-16.2,26.4,-25.2,28,-31.6,25C-38.1,21.9,-42.1,14.3,-42.9,6.4C-43.7,-1.5,-41.4,-9.7,-36.4,-15C-31.4,-20.3,-23.8,-22.7,-17.3,-25.3C-10.8,-27.8,-5.4,-30.4,1.5,-32.7C8.3,-35,16.7,-37,20.7,-33.3Z" stroke="url(#sw-gradient)"></path>
              </svg>