<svg width="36" height="36" viewBox="0 0 36 36" fill="none" xmlns="http://www.w3.org/2000/svg">
<mask id="mask0_19_55" style="mask-type:alpha" maskUnits="userSpaceOnUse" x="0" y="0" width="36" height="36">
<circle cx="18" cy="18" r="18" fill="#FD927B"/>
</mask>
<g mask="url(#mask0_19_55)">
<path fill-rule="evenodd" clip-rule="evenodd" d="M18.178 26.6488C21.632 26.6629 25.064 27.1253 28.376 28.0235C29.946 28.4488 31 29.6965 31 31.1294V33.5523C28.64 35.0365 24.112 37.2353 18 37.2353C15.292 37.2353 10.06 36.75 5 33.5523V31.1294C5 29.6965 6.058 28.4471 7.634 28.0218C11.062 27.0935 14.608 26.6594 18.178 26.6488H18.178ZM18.14 10.7647C21.404 10.7647 24.184 12.7941 24.846 15.5665C24.28 15.8559 23.694 16.0588 22.68 16.0588C21.376 16.0588 20.784 15.7288 20.032 15.3123C19.176 14.8359 18.208 14.2941 16.34 14.2941C14.458 14.2941 13.484 14.8376 12.624 15.3159C12.122 15.5947 11.69 15.8347 11.068 15.9635C11.542 13.0288 14.408 10.7647 17.86 10.7647H18.14ZM28.962 26.3365C27.08 25.8265 25.158 25.4612 23.216 25.2176C25.498 23.8023 27 21.4712 27 18.8294H25C25 22.1682 21.922 24.8823 18.14 24.8823H17.86C14.078 24.8823 11 22.1682 11 18.8294V17.7671C12.242 17.6153 13.004 17.1918 13.692 16.8071C14.444 16.3888 15.038 16.0588 16.34 16.0588C17.628 16.0588 18.218 16.3871 18.964 16.8035C19.824 17.2818 20.798 17.8235 22.68 17.8235C24.562 17.8235 25.54 17.2765 26.476 16.7523L27.006 16.4559L26.934 15.9035C26.408 11.9682 22.626 9 18.14 9H17.86C12.974 9 8.99999 12.5082 8.99999 16.9412V18.8294C8.99999 21.4765 10.506 23.8094 12.792 25.2247C10.852 25.4629 8.92999 25.8247 7.046 26.3347C4.626 26.9894 3 28.9182 3 31.1294V34.4418L3.4 34.7065C9.046 38.4423 14.97 39 18 39C25.056 39 30.176 36.3088 32.6 34.7065L33 34.4418V31.1294C33 28.9165 31.376 26.9912 28.962 26.3365Z" fill="#363838"/>
</g>
</svg>
